<svg width="40" height="40" viewBox="0 0 40 40" fill="none" xmlns="http://www.w3.org/2000/svg">
<path d="M28.3334 14.1665C29.7141 14.1665 30.8334 13.0472 30.8334 11.6665C30.8334 10.2858 29.7141 9.1665 28.3334 9.1665C26.9527 9.1665 25.8334 10.2858 25.8334 11.6665C25.8334 13.0472 26.9527 14.1665 28.3334 14.1665Z" fill="white"/>
<path d="M26.6667 5C31.2667 5 35 8.73333 35 13.3333V26.6667C35 31.2667 31.2667 35 26.6667 35H13.3333C8.73333 35 5 31.2667 5 26.6667V13.3333C5 8.73333 8.73333 5 13.3333 5H20H26.6667Z" stroke="white" stroke-width="3.33333" stroke-linecap="round" stroke-linejoin="round"/>
<path d="M20 13.3335C23.6834 13.3335 26.6667 16.3168 26.6667 20.0002C26.6667 23.6835 23.6834 26.6668 20 26.6668C16.3167 26.6668 13.3334 23.6835 13.3334 20.0002C13.3334 16.3168 16.3167 13.3335 20 13.3335Z" stroke="white" stroke-width="3.33333" stroke-linecap="round" stroke-linejoin="round"/>
</svg>
